<?xml version="1.0" standalone="no"?>
<!DOCTYPE svg PUBLIC "-//W3C//DTD SVG 20010904//EN"
 "http://www.w3.org/TR/2001/REC-SVG-20010904/DTD/svg10.dtd">
<svg version="1.0" xmlns="http://www.w3.org/2000/svg"
 width="225.000000pt" height="225.000000pt" viewBox="0 0 225.000000 225.000000"
 preserveAspectRatio="xMidYMid meet">
<metadata>
Created by potrace 1.16, written by Peter Selinger 2001-2019
</metadata>
<g transform="translate(0.000000,225.000000) scale(0.100000,-0.100000)"
fill="#000000" stroke="none">
<path d="M898 2096 l-228 -131 0 -222 0 -223 35 0 35 0 2 207 3 207 185 107
c102 59 190 108 195 108 6 0 93 -48 195 -108 l185 -107 3 -207 2 -207 35 0 35
0 0 223 0 222 -188 108 c-103 59 -205 118 -227 131 l-40 23 -227 -131z"/>
<path d="M1105 2088 c-11 -6 -21 -12 -23 -13 -7 -6 23 -55 32 -52 6 2 51 -20
101 -49 l90 -52 17 21 c10 12 18 25 18 28 0 4 -174 107 -210 125 -3 1 -14 -2
-25 -8z"/>
<path d="M791 1894 c-6 -15 -10 -28 -9 -29 2 -1 72 -42 156 -90 l152 -87 0
-184 0 -184 35 0 35 0 0 184 0 184 153 87 c83 48 153 89 155 90 3 3 -15 44
-24 54 -2 2 -72 -36 -156 -85 -84 -48 -158 -87 -163 -87 -6 0 -74 36 -151 81
-175 101 -168 99 -183 66z"/>
<path d="M851 1535 c-28 -50 -35 -55 -65 -55 -47 0 -94 -36 -128 -100 -32 -60
-34 -116 -5 -148 21 -25 10 -42 -28 -42 -54 0 -83 -20 -120 -81 -39 -64 -47
-128 -19 -167 10 -15 12 -27 7 -35 -5 -7 -21 -32 -35 -57 l-26 -46 29 -16 28
-17 32 59 c31 55 35 58 76 63 53 6 85 33 119 99 28 54 31 114 8 146 -21 30
-13 38 41 45 55 6 82 29 119 100 30 60 32 90 11 131 -20 37 -20 37 16 98 29
49 30 53 13 65 -30 22 -41 15 -73 -42z"/>
<path d="M1326 1577 c-17 -12 -16 -16 13 -65 36 -61 36 -61 16 -98 -21 -41
-19 -70 12 -131 37 -73 62 -94 118 -100 54 -7 62 -16 41 -48 -23 -35 -20 -88
8 -143 34 -66 66 -93 119 -99 42 -5 46 -8 77 -63 l32 -58 28 16 28 16 -26 46
c-14 25 -30 50 -35 57 -5 8 -3 20 7 35 26 37 20 103 -15 164 -34 60 -70 84
-124 84 -39 0 -44 11 -20 56 21 41 19 71 -11 131 -36 71 -64 94 -118 100 -43
5 -48 9 -77 59 -32 56 -43 63 -73 41z"/>
<path d="M962 1315 c-7 -14 -12 -27 -12 -29 0 -6 165 -99 175 -99 12 0 175 93
175 100 0 4 -20 44 -25 51 -1 1 -34 -16 -72 -38 -39 -22 -74 -40 -78 -40 -4 0
-39 18 -77 40 -39 22 -71 40 -72 40 -2 0 -8 -11 -14 -25z"/>
<path d="M190 921 l-185 -107 0 -264 0 -264 220 -128 c121 -70 225 -127 232
-125 18 3 412 231 413 238 0 4 -8 16 -17 28 l-18 22 -175 -102 c-96 -55 -182
-105 -191 -109 -11 -7 -68 22 -210 103 l-194 113 0 224 0 224 169 97 c93 54
173 102 178 107 12 12 -8 52 -25 51 -7 0 -95 -49 -197 -108z"/>
<path d="M1841 1003 c-8 -16 -8 -28 -2 -32 5 -3 84 -49 175 -101 l166 -95 -2
-228 -3 -229 -150 -87 c-82 -48 -168 -97 -191 -110 l-40 -22 -183 105 c-100
58 -186 106 -191 106 -5 0 -14 -10 -21 -21 -8 -17 -8 -24 3 -34 7 -7 97 -61
200 -120 125 -71 193 -105 205 -101 10 4 113 61 228 129 l210 122 3 262 2 261
-194 111 c-106 61 -196 111 -198 111 -3 0 -10 -12 -17 -27z"/>
<path d="M715 884 c-9 -14 -15 -27 -13 -29 2 -1 33 -20 71 -41 l67 -38 0 -79
0 -78 33 3 32 3 3 92 3 92 -68 39 c-116 67 -109 65 -128 36z"/>
<path d="M1428 858 l-88 -51 0 -88 0 -89 35 0 35 0 0 73 0 72 70 39 c39 22 70
43 70 47 0 4 -8 16 -17 28 l-18 21 -87 -52z"/>
<path d="M620 683 c-80 -47 -150 -87 -157 -90 -7 -3 -79 34 -161 81 -82 47
-154 86 -160 86 -14 0 -36 -39 -27 -48 4 -4 73 -45 153 -92 l147 -86 3 -182 2
-182 35 0 35 0 0 183 0 182 155 89 c85 48 155 91 155 95 0 3 -8 16 -18 27
l-17 21 -145 -84z"/>
<path d="M1462 739 c-8 -13 -10 -25 -4 -31 5 -5 74 -46 153 -92 l144 -83 5
-184 5 -184 30 0 30 0 3 182 2 183 98 56 c224 131 212 122 200 149 -6 14 -15
25 -20 25 -5 0 -76 -39 -159 -86 -173 -101 -135 -102 -330 12 -70 40 -131 74
-136 74 -4 0 -14 -10 -21 -21z"/>
<path d="M884 566 c-18 -8 -40 -28 -50 -45 -18 -30 -21 -31 -86 -31 l-68 0 0
-35 0 -35 68 0 c63 0 70 -2 82 -25 24 -44 58 -60 136 -60 81 0 118 15 140 57
19 36 35 35 63 -3 33 -45 83 -63 155 -55 69 7 99 24 121 66 15 29 18 30 80 30
l65 0 0 30 0 30 -68 0 c-64 0 -70 2 -80 25 -19 41 -69 65 -135 65 -71 0 -122
-22 -143 -61 -19 -37 -35 -37 -58 2 -10 17 -33 37 -52 45 -42 18 -129 17 -170
0z"/>
<path d="M110 386 c0 -33 4 -36 115 -100 63 -36 118 -66 123 -66 5 0 14 11 20
24 13 29 17 26 -105 95 -51 29 -93 59 -93 67 0 9 -11 14 -30 14 -27 0 -30 -3
-30 -34z"/>
<path d="M2073 396 c-4 -7 -47 -37 -96 -65 -77 -46 -86 -54 -77 -71 6 -10 14
-22 20 -25 5 -3 56 21 112 53 93 54 103 63 106 91 3 29 1 31 -27 31 -16 0 -34
-6 -38 -14z"/>
</g>
</svg>
